{"title":"Jennifers.Body.2009.UNRATED.DVDRip.XviD-Emery","uid":5322778,"size":738884735,"categoryP":"video","categoryS":"movies","magnet":"?xt=urn:btih:ca0190eea787549a689bab9a5a1d16bda33bf909&amp;dn=Jennifers.Body.2009.UNRATED.DVDRip.XviD-Emery&amp;tr=udp%3A%2F%2Ftracker.openbittorrent.com%3A80&amp;tr=udp%3A%2F%2Fopen.demonii.com%3A1337&amp;tr=udp%3A%2F%2Ftracker.coppersurfer.tk%3A6969&amp;tr=udp%3A%2F%2Fexodus.desync.com%3A6969","seeders":1,"leechers":0,"uploader":"Emery2010","files":-1,"time":1264918959,"description":"General\nComplete name                    : Jennifers.Body.2009.UNRATED.DVDRip.XviD-Emery.avi\nFormat                           : AVI\nFormat/Info                      : Audio Video Interleave\nFile size                        : 705 MiB\nDuration                         : 1h 42mn\nOverall bit rate                 : 963 Kbps\nWriting application              : VirtualDubMod 1.5.10.2 (build 2540/release)\nWriting library                  : VirtualDubMod build 2540/release\n\nVideo\nID                               : 0\nFormat                           : MPEG-4 Visual\nFormat profile                   : AdvancedSimple@L5\nFormat settings, BVOP            : Yes\nFormat settings, QPel            : No\nFormat settings, GMC             : No warppoints\nFormat settings, Matrix          : Default (H.263)\nMuxing mode                      : Packed bitstream\nCodec ID                         : XVID\nCodec ID/Hint                    : XviD\nDuration                         : 1h 42mn\nBit rate                         : 825 Kbps\nWidth                            : 624 pixels\nHeight                           : 336 pixels\nDisplay aspect ratio             : 1.857\nFrame rate                       : 23.976 fps\nResolution                       : 24 bits\nColorimetry                      : 4:2:0\nScan type                        : Progressive\nBits/(Pixel*Frame)               : 0.164\nStream size                      : 604 MiB (86%)\nWriting library                  : XviD 1.2.1 (UTC 2008-12-04)\n\nAudio\nID                               : 1\nFormat                           : MPEG Audio\nFormat version                   : Version 1\nFormat profile                   : Layer 3\nFormat settings, Mode            : Joint stereo / MS Stereo\nCodec ID                         : 55\nCodec ID/Hint                    : MP3\nDuration                         : 1h 42mn\nBit rate mode                    : Constant\nBit rate                         : 128 Kbps\nChannel(s)                       : 2 channels\nSampling rate                    : 48.0 KHz\nResolution                       : 16 bits\nStream size                      : 93.7 MiB (13%)\nAlignment                        : Aligned on interleaves\nInterleave, duration             : 42 ms (1.00 video frame)\nInterleave, preload duration     : 504 ms\n &lt;a href=&quot;\nhttp://www.imdb.com/title/tt1131734/&quot; rel=&quot;nofollow&quot; target=&quot;_NEW&quot;&gt;\nhttp://www.imdb.com/title/tt1131734/&lt;/a&gt;\nGenre: Comedy | Horror | Thriller\nRatings: 5.4/10   16,457 votes  \nTagline: She's evil... and not just high school evil.\nSource: NTSC DVD9\n\nCast:\nMegan Fox ... Jennifer\nAmanda Seyfried ... Needy\nJohnny Simmons ... Chip\nAdam Brody ... Nikolai\nSal Cortez ... Chas\nRyan Levine ... Mick\nJuan Riedinger ... Dirk\nColin Askey ... Keyboardist\nChris Pratt ... Roman Duda\nJuno Ruddell ... Officer Warzak\nKyle Gallner ... Colin Gray\nJosh Emerson ... Jonas Konelle\nJ.K. Simmons ... Mr. Wroblewski\nAmy Sedaris ... Needy's Mom\nCynthia Stevenson... Chip's Mom\n\nPlot: A newly possessed cheerleader turns into a killer who specializes in\noffing her male classmates. Can her best friend put an end to the horror?\n","torrent":{"xt":"urn:btih:ca0190eea787549a689bab9a5a1d16bda33bf909","amp;dn":"Jennifers.Body.2009.UNRATED.DVDRip.XviD-Emery","amp;tr":["udp%3A%2F%2Ftracker.openbittorrent.com%3A80","udp%3A%2F%2Fopen.demonii.com%3A1337","udp%3A%2F%2Ftracker.coppersurfer.tk%3A6969","udp%3A%2F%2Fexodus.desync.com%3A6969"],"infoHash":"ca0190eea787549a689bab9a5a1d16bda33bf909","infoHashBuffer":{"type":"Buffer","data":[202,1,144,238,167,135,84,154,104,155,171,154,90,29,22,189,163,59,249,9]},"announce":[],"urlList":[]}}